<svg width="80" height="32" viewBox="0 0 80 32" fill="none" xmlns="http://www.w3.org/2000/svg">
<path d="M21.3338 27.6667C21.0683 27.6679 20.8136 27.5622 20.6271 27.3733L9.96042 16.7067C9.57048 16.3162 9.57048 15.6838 9.96042 15.2933L20.6271 4.62667C21.0211 4.25952 21.6351 4.27035 22.0159 4.65117C22.3967 5.03199 22.4076 5.64599 22.0404 6.04L12.0804 16L22.0404 25.96C22.4304 26.3504 22.4304 26.9829 22.0404 27.3733C21.8539 27.5622 21.5992 27.6679 21.3338 27.6667Z" fill="white"/>
<path d="M58.6662 4.33333C58.9317 4.33208 59.1864 4.43782 59.3729 4.62667L70.0396 15.2933C70.4295 15.6838 70.4295 16.3162 70.0396 16.7067L59.3729 27.3733C58.9789 27.7405 58.3649 27.7296 57.9841 27.3488C57.6033 26.968 57.5924 26.354 57.9596 25.96L67.9196 16L57.9596 6.04C57.5696 5.64958 57.5696 5.01709 57.9596 4.62667C58.1461 4.43782 58.4008 4.33208 58.6662 4.33333Z" fill="white"/>
</svg>
