<svg width="55" height="34" viewBox="0 0 55 34" fill="none" xmlns="http://www.w3.org/2000/svg">
<g clip-path="url(#clip0_82_2235)">
<path d="M16.2382 19.6688C14.9604 19.1306 13.6827 18.5925 12.4032 18.0543C11.0272 18.3867 9.51607 18.8281 7.9312 19.4173C7.16246 19.7039 6.44462 19.9994 5.78119 20.2966C6.35335 20.7925 7.36957 21.8126 7.82063 23.3039C8.11373 24.2711 8.06635 25.1012 7.97332 25.657C7.14491 26.2461 6.31474 26.8353 5.48633 27.4227C6.17433 28.0593 7.00977 28.7328 8.0172 29.3941C11.1255 31.4289 14.397 32.3627 16.6015 32.8164C17.2245 31.7665 17.8493 30.7148 18.4724 29.6649L17.2947 28.2985L22.009 22.2786L21.4157 22.3507C19.8379 21.5312 18.2583 20.7134 16.6804 19.8939L16.2399 19.6705L16.2382 19.6688Z" fill="#231F20"/>
<path d="M16.8365 18.7761L16.8653 18.805L17.1558 18.9523L17.1602 18.9546L17.1649 18.957C17.9534 19.3665 18.7425 19.7757 19.5319 20.1851C20.2248 20.5444 20.9181 20.904 21.6111 21.2638L24.4081 20.9239L18.6583 28.2661L19.7651 29.5506L19.3774 30.2043C19.0658 30.7293 18.7537 31.2548 18.4418 31.7802C18.1298 32.3056 17.8179 32.8309 17.5065 33.3557L17.1234 34.0012L16.3895 33.85C14.1158 33.382 10.7023 32.4123 7.44113 30.2774L7.43993 30.2767C6.38125 29.5818 5.50019 28.8718 4.77178 28.1978L3.81641 27.3138L4.87787 26.5612C5.57908 26.064 6.28113 25.5654 6.98247 25.0669C7.00843 24.6663 6.9817 24.1678 6.81278 23.6103L6.81261 23.6098C6.44665 22.3999 5.60602 21.5401 5.09212 21.0946L3.84074 20.0099L5.35127 19.3332C6.03557 19.0267 6.77423 18.7227 7.56368 18.4283L7.56471 18.428C9.1932 17.8226 10.7448 17.3694 12.1563 17.0285L12.492 16.9474L16.8365 18.7761ZM12.3164 19.1622C11.0671 19.4755 9.71223 19.8803 8.29812 20.406L8.29829 20.4061C8.05941 20.4952 7.8258 20.5853 7.59744 20.6758C8.07101 21.2774 8.54248 22.0533 8.82808 22.9972C9.18059 24.1605 9.12362 25.1625 9.01165 25.8315L8.93932 26.2638L8.58264 26.5174C8.12107 26.8457 7.65867 27.1735 7.19671 27.5014C7.61724 27.8359 8.08174 28.1751 8.59412 28.5114C11.2285 30.2357 14.0012 31.136 16.0845 31.6225C16.2669 31.3154 16.4494 31.0083 16.6318 30.7011C16.8144 30.3937 16.9967 30.0861 17.1791 29.7788L15.9308 28.3305L20.1837 22.8997C19.644 22.6196 19.1041 22.3394 18.564 22.0593C17.7747 21.65 16.9849 21.2406 16.1956 20.8307L15.7853 20.6227C14.6293 20.1358 13.4735 19.649 12.3164 19.1622Z" fill="white"/>
<path d="M27.9541 22.0975L30.4323 24.5947L28.707 26.4923L31.0449 28.7856C31.5609 29.0793 32.9913 29.8127 35.0167 29.8584C37.7845 29.9199 39.5765 28.652 39.9292 28.3917L39.9468 27.9678L40.6453 28.2809C41.5036 28.2053 43.6694 27.9239 45.6544 26.619C47.9747 25.0942 48.5416 23.1597 48.6855 22.5512C47.213 22.4457 45.6246 22.3788 43.9344 22.3718C42.8129 22.3665 41.7388 22.3894 40.719 22.4316C38.6743 21.6525 36.6296 20.8734 34.5849 20.0944L28.5719 22.2241L27.9541 22.0992V22.0975Z" fill="#231F20"/>
<path d="M34.9585 19.108C35.9808 19.4976 37.0033 19.8872 38.0257 20.2767C38.9811 20.6408 39.9365 21.0048 40.8919 21.3689C41.8616 21.3316 42.8791 21.3117 43.9387 21.3166C45.6537 21.3238 47.2654 21.3916 48.76 21.4987L49.995 21.5871L49.7095 22.7945C49.5303 23.5522 48.8578 25.7751 46.2313 27.5011C44.0279 28.9496 41.6533 29.2513 40.737 29.3321L40.4645 29.3559L40.4204 29.3362C39.7931 29.776 37.8524 30.9769 34.9926 30.9133H34.9923C32.7246 30.8621 31.1187 30.0415 30.5241 29.703L30.4053 29.6354L27.2437 26.5342L28.9781 24.6265L27.4341 23.0705L26.9004 22.9628V19.5398L28.4771 21.1286L28.4944 21.132L34.5975 18.9705L34.9585 19.108ZM30.1276 22.7917L31.8852 24.5629L30.1689 26.4504L31.6786 27.9313C32.1963 28.2119 33.3926 28.7663 35.0397 28.8034C36.8939 28.8446 38.2423 28.2055 38.8986 27.8109L38.9584 26.3693L40.8179 27.2026C41.732 27.0994 43.4816 26.7848 45.0761 25.7366C46.1805 25.0109 46.8177 24.1879 47.1862 23.517C46.1501 23.4643 45.0631 23.4317 43.9294 23.427H43.9288C42.8247 23.4218 41.7668 23.4443 40.7618 23.4859L40.5461 23.4949L40.3441 23.4179C39.3218 23.0284 38.2993 22.6388 37.277 22.2492C36.375 21.9055 35.473 21.5618 34.571 21.2181L30.1276 22.7917Z" fill="white"/>
<path d="M39.753 8.27967C40.5621 7.22976 41.0834 6.59488 41.3186 5.60125C41.5748 4.5144 41.3835 3.53483 42.3137 2.82082C42.6753 2.54295 43.0825 2.4005 43.3686 2.32312C43.7933 2.41809 48.2969 3.48559 49.5167 6.57378C49.9327 7.62545 49.8327 8.56985 49.6694 9.21527C47.9687 10.2124 46.268 11.2078 44.5691 12.205C47.5352 12.0291 50.5014 11.8515 53.4657 11.6756C53.7097 12.1557 54.0414 13.0034 53.9221 14.0393C53.7834 15.2439 53.1095 16.0635 52.5373 16.7581C52.0406 17.3613 51.1314 18.2952 49.594 19.1569C46.9736 18.5572 44.3549 17.9575 41.7346 17.3561L41.4853 16.1268C38.8527 16.6245 36.2182 17.1204 33.5856 17.6181C33.217 17.4827 32.8045 17.3086 32.371 17.087C31.9007 16.8478 31.5075 16.6034 31.1846 16.3783C33.4434 13.7227 35.4267 12.0379 36.8694 10.9704C37.4977 10.5061 38.6842 9.66725 39.7548 8.27791L39.753 8.27967Z" fill="#231F20"/>
<path d="M43.5983 1.2932C43.8486 1.34916 45.1741 1.66235 46.6146 2.38153C48.0257 3.0861 49.7424 4.27711 50.4962 6.18496L50.5432 6.30844C51.0104 7.5798 50.8825 8.71551 50.6906 9.47453L50.5822 9.90286L50.2017 10.126C49.7669 10.3809 49.3321 10.6357 48.8976 10.8904C50.3991 10.8009 51.9004 10.7115 53.404 10.6223L54.092 10.5814L54.4046 11.1969C54.6962 11.7708 55.1213 12.836 54.9687 14.1604C54.7901 15.7108 53.9102 16.7495 53.35 17.4297C52.786 18.1146 51.7798 19.141 50.1085 20.0778L49.7549 20.276L49.3598 20.1856C46.7394 19.5859 44.1206 18.9861 41.4999 18.3846L40.8381 18.2327L40.6604 17.3562C39.6838 17.5406 38.7072 17.7251 37.7307 17.9094C36.4139 18.1578 35.0972 18.4063 33.7811 18.6551L33.4959 18.709L33.2234 18.6089C32.8197 18.4605 32.368 18.2699 31.8928 18.027C31.376 17.7641 30.9419 17.4943 30.5835 17.2445L29.6299 16.5797L30.3835 15.6939C32.6991 12.9716 34.7428 11.2327 36.2443 10.1217L36.2448 10.1211C36.8788 9.6527 37.9509 8.89212 38.9202 7.63499L38.92 7.63482C39.7686 6.53362 40.1216 6.08634 40.2941 5.3587L40.3121 5.27867C40.352 5.09113 40.3788 4.89747 40.4072 4.67499C40.4374 4.43805 40.4725 4.13897 40.5342 3.85028C40.6691 3.21943 40.9507 2.53831 41.6738 1.98326C42.1914 1.58564 42.7484 1.39798 43.0946 1.30436L43.3451 1.23669L43.5983 1.2932ZM43.4043 3.41835C43.2479 3.47673 43.0902 3.5542 42.955 3.6581L42.9545 3.65845C42.7474 3.81741 42.6597 3.98321 42.5936 4.29235C42.5548 4.47362 42.5314 4.66791 42.4964 4.94257C42.4635 5.19996 42.4218 5.51334 42.3438 5.84388L42.3437 5.84474C42.0458 7.10298 41.357 7.92529 40.5884 8.92255L40.5887 8.92289C39.4174 10.4428 38.1177 11.3592 37.4952 11.8192L37.4953 11.8193C36.2865 12.7138 34.6664 14.0709 32.8083 16.1253L32.848 16.1461L32.8499 16.1471C33.1411 16.2959 33.4221 16.421 33.684 16.5258C34.9028 16.2954 36.1221 16.0655 37.3411 15.8356C38.6578 15.5871 39.9744 15.3386 41.2904 15.0898L42.3109 14.897L42.6318 16.4791C44.8959 16.9986 47.159 17.5171 49.4234 18.0354C50.6183 17.3092 51.3323 16.5641 51.7255 16.0866C52.3096 15.3775 52.7776 14.7769 52.8764 13.9182C52.9257 13.4905 52.8684 13.1012 52.7737 12.7739C50.0628 12.935 47.3432 13.0976 44.6317 13.2584L40.2485 13.5182L44.0372 11.2945C45.5999 10.3773 47.1652 9.46087 48.7287 8.54437C48.7887 8.09495 48.7708 7.55093 48.5382 6.96261L48.538 6.9621C48.0719 5.78207 46.9269 4.89545 45.6753 4.27054C44.7354 3.80128 43.845 3.53442 43.4043 3.41835Z" fill="white"/>
<path d="M18.2989 17.1328C14.2288 15.645 11.7629 15.7417 10.2377 16.1497C9.53739 16.3379 7.95954 16.8796 5.60945 17.0519C4.72662 17.117 3.99123 17.1117 3.4998 17.0959C3.20319 17.0238 2.34142 16.7846 1.70607 16.1146C1.24448 15.6257 1.12162 15.142 1.08301 14.8993C1.30766 14.282 1.69203 13.4696 2.37653 12.6008C3.02065 11.783 3.72796 11.171 4.3054 10.7401C4.74944 10.7067 5.26895 10.6926 5.84639 10.719C6.6046 10.7542 7.26452 10.8509 7.79632 10.9564C7.7893 10.8826 7.74367 10.4798 7.29085 10.1897C6.96966 9.9839 6.62215 9.94697 6.49051 9.93994C7.79456 7.22634 9.09861 4.5145 10.4009 1.8009L13.2477 2.17374L15.5557 6.09553C15.2275 6.36108 14.8993 6.62488 14.5693 6.89044C15.0133 8.03708 15.4591 9.18548 15.9032 10.3321C16.7088 10.8369 17.5126 11.3416 18.3182 11.8481L20.1067 15.4656C19.5029 16.0214 18.9009 16.5771 18.2972 17.1328H18.2989Z" fill="#231F20"/>
<path d="M13.8937 1.19405L16.9245 6.34412L16.2172 6.91637C16.0882 7.02074 15.9588 7.12447 15.8298 7.22843C15.959 7.56184 16.0883 7.89539 16.2177 8.229C16.3979 8.69377 16.578 9.15882 16.7581 9.62356L19.1297 11.1126L21.4011 15.7069L20.819 16.2427C20.6407 16.4068 20.4624 16.5709 20.2843 16.7351L24.2581 18.1879H15.5939L16.2609 17.5739C13.354 16.7371 11.5809 16.8824 10.5093 17.1691L10.5091 17.1689C9.85277 17.3454 8.15907 17.9227 5.68647 18.1041C4.75747 18.1725 3.98368 18.1671 3.46584 18.1504L3.35717 18.147L3.25142 18.1212C2.91364 18.0391 1.79717 17.7426 0.942517 16.8412L0.940974 16.8397C0.292916 16.1533 0.10428 15.4504 0.0430209 15.0654L0 14.7949L0.0935832 14.5378C0.349759 13.8339 0.784454 12.9183 1.54978 11.9469C2.26653 11.0369 3.04796 10.3626 3.67631 9.89371L3.92158 9.7108L4.2265 9.68779C4.5944 9.66011 5.0082 9.64488 5.45988 9.65172L5.54164 9.48204C6.84583 6.76813 8.14961 4.05673 9.45174 1.34347L9.78185 0.65564L13.8937 1.19405ZM7.93984 9.35547C8.71655 9.8981 8.825 10.6515 8.84447 10.8563L8.97851 12.2667L7.59173 11.9914C7.10259 11.8943 6.49554 11.8053 5.79839 11.7729C5.39544 11.7545 5.02391 11.7576 4.69133 11.7734C4.21969 12.1478 3.68904 12.6374 3.20308 13.2544L3.20291 13.2546C2.70603 13.8852 2.39204 14.4775 2.18875 14.9632C2.23787 15.0827 2.32212 15.2313 2.46933 15.3876C2.83814 15.7766 3.35718 15.9635 3.6482 16.0442C4.10967 16.0562 4.76164 16.0563 5.53204 15.9995H5.53238C7.75826 15.8363 9.21961 15.3307 9.96473 15.1305L9.96593 15.1302C11.6648 14.6757 14.1827 14.6067 18.0508 15.9262C18.1967 15.7917 18.3428 15.6572 18.4889 15.5226C18.5966 15.4233 18.7043 15.3238 18.8121 15.2245L17.5066 12.5837C16.7856 12.1305 16.0659 11.6786 15.3447 11.2268L15.048 11.0408L14.9214 10.7138C14.6995 10.1407 14.4769 9.56705 14.2545 8.99326C14.032 8.41956 13.8095 7.84558 13.5874 7.27205L13.3084 6.55159L13.9098 6.06761C14.0021 5.99329 14.0939 5.91892 14.1857 5.84503L12.6013 3.15313L11.0193 2.94584C9.99345 5.0828 8.96668 7.21897 7.93984 9.35547Z" fill="white"/>
<path d="M24.3661 23.8896C24.2713 23.8896 24.1748 23.879 24.0835 23.8562L21.7632 23.3022C21.5825 23.2582 21.4175 23.1738 21.2806 23.0612C21.1963 23.0419 21.1139 23.012 21.0366 22.9751L16.1135 20.6097C15.6133 20.3688 15.3553 19.8306 15.487 19.3013C15.5782 18.9337 15.7257 18.5784 15.9222 18.2461C16.3873 17.4652 16.9999 17.0291 17.5931 16.607C17.7563 16.4909 17.9231 16.3713 18.0898 16.2447C18.4777 15.9457 18.8392 15.6151 19.1692 15.2581C19.1253 15.1438 19.0779 15.0295 19.0288 14.9169C18.7023 14.1554 18.3917 13.5733 18.1056 13.1847C17.6054 12.5041 16.7542 11.878 15.6414 11.3715C15.4729 11.2941 15.3237 11.1798 15.2114 11.0374C14.8393 10.5731 14.5287 10.0771 14.2882 9.56536C13.9056 8.74759 13.702 7.88937 13.6809 7.01356C13.6722 6.61434 13.8687 6.24503 14.2092 6.02695C15.6028 5.12828 17.0999 4.30699 18.6585 3.58771C20.7453 2.62572 22.9795 1.8273 25.2998 1.21353C25.6929 1.10977 26.1036 1.05701 26.5196 1.05701C27.0848 1.05701 27.6341 1.15197 28.1519 1.33839C30.695 2.25817 33.2838 3.17442 35.848 4.06078C37.3206 4.57079 38.8177 5.0808 40.2973 5.5785C40.7957 5.74733 41.1151 6.20458 41.0923 6.7181L41.0572 7.55698C41.0467 7.80143 40.9607 8.03182 40.8045 8.22527C39.6619 9.63571 38.4228 10.967 37.1187 12.1858C36.8625 12.4249 36.6027 12.6606 36.336 12.9033C35.5391 13.6261 34.716 14.3753 33.6612 15.5026C33.3891 15.7945 33.1206 16.09 32.8573 16.3872C33.1732 16.6017 33.5173 16.7108 33.8788 16.8268C34.4018 16.9939 34.9951 17.1821 35.4479 17.7044C35.8112 18.1247 36.1657 18.8633 35.8007 19.9977C35.6918 20.3336 35.4373 20.5991 35.1004 20.7258L29.0593 22.9909C28.9241 23.0419 28.7802 23.0683 28.6328 23.0683C28.4573 23.0683 28.28 23.0296 28.122 22.9557L24.668 23.8526C24.5662 23.879 24.4644 23.8913 24.3626 23.8913L24.3661 23.8896Z" fill="#231F20"/>
<path d="M26.5232 2.11038C26.9584 2.11038 27.3937 2.18424 27.7974 2.33021C30.3265 3.24471 32.896 4.15393 35.5076 5.05612C37.0012 5.57316 38.486 6.07966 39.9638 6.57735C40.013 6.59318 40.0446 6.63187 40.0428 6.67232L40.0077 7.51296C40.0077 7.53054 40.0007 7.54637 39.9884 7.56044C38.6071 9.26633 37.3312 10.5449 36.4027 11.4119C35.3918 12.3563 34.3422 13.2338 32.896 14.7797C32.2852 15.4322 31.8043 15.9897 31.4814 16.373C31.4568 16.4029 31.455 16.4381 31.4761 16.4698C31.5937 16.6456 31.785 16.8866 32.0869 17.1257C33.0697 17.9031 34.1333 17.7905 34.6546 18.3937C34.8494 18.6206 35.0179 19.0022 34.802 19.6723C34.7933 19.7004 34.7687 19.7233 34.7353 19.7356L28.6925 22.0007C28.6749 22.0078 28.6556 22.0113 28.6363 22.0113C28.6118 22.0113 28.5889 22.006 28.5679 21.9972L28.2783 21.8635C28.2572 21.853 28.2326 21.8495 28.2098 21.8495C28.1958 21.8495 28.1818 21.8495 28.1677 21.8548L24.4065 22.8308C24.3925 22.8343 24.3784 22.8361 24.3644 22.8361C24.3503 22.8361 24.3381 22.8361 24.3258 22.8308L22.0055 22.2768C21.9546 22.2645 21.9178 22.2293 21.9125 22.1889L21.8967 22.0552C21.8897 21.999 21.8265 21.9638 21.7633 21.9638C21.7264 21.9638 21.6896 21.9761 21.6633 22.0025C21.6387 22.0271 21.6001 22.0394 21.5615 22.0394C21.5369 22.0394 21.5123 22.0341 21.4913 22.0236L16.5682 19.6582C16.5225 19.6353 16.498 19.5949 16.5085 19.5544C16.5576 19.3575 16.6471 19.0849 16.8262 18.7842C17.286 18.0103 17.9652 17.6656 18.7305 17.0783C19.164 16.7459 19.7519 16.2376 20.3399 15.5095C20.3575 15.4867 20.3627 15.4603 20.3557 15.4339C20.2767 15.1965 20.1609 14.8729 19.9977 14.4948C19.8643 14.1853 19.4571 13.2356 18.9551 12.5533C18.6164 12.0925 17.8283 11.2008 16.0802 10.4059C16.0609 10.3971 16.0451 10.3866 16.0346 10.3725C15.7661 10.0384 15.48 9.6163 15.2448 9.11333C14.8517 8.27445 14.7499 7.52527 14.7376 6.9836C14.7376 6.95371 14.7534 6.92733 14.7815 6.90974C15.9749 6.13945 17.4089 5.32344 19.1025 4.5426C21.4228 3.47334 23.6448 2.73998 25.5719 2.22997C25.879 2.14907 26.202 2.10862 26.5232 2.10862M26.5232 0C26.0159 0 25.5157 0.0650701 25.0348 0.191693C22.6549 0.819531 20.3627 1.63906 18.2215 2.62742C16.6173 3.36782 15.0763 4.21197 13.6406 5.13702C12.9912 5.55558 12.6139 6.26607 12.6314 7.0346C12.656 8.05814 12.893 9.06057 13.337 10.0102C13.6126 10.5994 13.9688 11.1674 14.3936 11.6968C14.6095 11.9659 14.892 12.1839 15.208 12.3299C16.1434 12.7555 16.8718 13.2796 17.2597 13.8089C17.458 14.0798 17.6809 14.4843 17.9214 15.0118C17.7704 15.149 17.6125 15.2809 17.4492 15.4058C17.2983 15.5219 17.1456 15.6309 16.9824 15.7452C16.3646 16.1849 15.5941 16.7336 15.0166 17.7043C14.7657 18.1247 14.5796 18.5766 14.4638 19.0444C14.2128 20.0504 14.7148 21.1073 15.6573 21.5611L20.5804 23.9264C20.6541 23.9616 20.7278 23.9933 20.805 24.0197C21.0191 24.1603 21.2596 24.2676 21.5193 24.3292L23.8396 24.8832C24.0116 24.9236 24.1889 24.9447 24.3661 24.9447C24.5592 24.9447 24.7505 24.9201 24.9365 24.8726L28.0887 24.0548C28.2678 24.0988 28.4538 24.1217 28.6381 24.1217C28.9119 24.1217 29.1787 24.0724 29.4331 23.9774L35.4742 21.7123C36.1131 21.4731 36.5993 20.9649 36.8064 20.3212C37.3505 18.6347 36.6905 17.525 36.2483 17.0132C35.7603 16.4469 35.1776 16.162 34.6669 15.9756C35.5831 15.0136 36.3272 14.3383 37.0468 13.6841C37.3189 13.4361 37.5769 13.2022 37.8401 12.956C39.1793 11.7038 40.4535 10.3374 41.6242 8.89174C41.919 8.5277 42.0928 8.06869 42.1121 7.60089L42.1472 6.76025C42.1876 5.77365 41.5803 4.89608 40.6343 4.57777C39.1582 4.08007 37.6646 3.57006 36.1938 3.06181C33.6349 2.17721 31.0496 1.26271 28.5117 0.344696C27.8781 0.116071 27.2094 0 26.5214 0L26.5232 0Z" fill="white"/>
<path d="M26.948 14.2909C27.2289 14.3454 28.9331 14.6619 30.2757 13.8916C31.4183 13.2357 31.6026 12.1945 31.7202 11.5298C31.8606 10.7331 31.7062 10.0683 31.5728 9.66736C30.374 11.5509 29.3052 12.9033 28.7628 13.3605C28.4294 13.6419 28.0696 13.8424 28.0696 13.8424C27.6308 14.0851 27.2166 14.2187 26.9463 14.2909H26.948Z" fill="white"/>
<path d="M31.8221 9.58386C31.9636 10.0093 32.1295 10.7209 31.9789 11.5756V11.5757C31.8608 12.2432 31.6621 13.3994 30.4062 14.1205H30.406C29.6815 14.5361 28.8704 14.6535 28.2176 14.6642C27.5958 14.6744 27.0988 14.588 26.9232 14.5546H24.9336L26.8781 14.036C27.1354 13.9673 27.5278 13.8404 27.9418 13.6114C27.9422 13.6112 27.9429 13.6108 27.9437 13.6104C27.9459 13.6091 27.9494 13.6071 27.9541 13.6044C27.9635 13.599 27.9777 13.5907 27.996 13.5798C28.0325 13.5581 28.085 13.5259 28.1476 13.4853C28.2736 13.4037 28.4373 13.2899 28.5928 13.1587L28.6411 13.1168C28.8901 12.8944 29.2599 12.4768 29.7127 11.8878C30.192 11.2642 30.7545 10.4617 31.3504 9.52546L31.6474 9.05884L31.8221 9.58386ZM31.4637 10.3193C30.9829 11.0509 30.5296 11.6896 30.1297 12.2098C29.6431 12.8428 29.2259 13.3141 28.9318 13.5621C28.7538 13.7123 28.5708 13.8395 28.4335 13.9284C28.3646 13.9731 28.3064 14.0088 28.2651 14.0334C28.2444 14.0457 28.2278 14.0554 28.2162 14.0621C28.2104 14.0654 28.2059 14.068 28.2027 14.0698C28.2011 14.0707 28.1997 14.0713 28.1987 14.0719C28.1983 14.0721 28.198 14.0724 28.1977 14.0725L28.1974 14.0727L28.1972 14.0729H28.197L28.1963 14.0732C28.1562 14.0954 28.116 14.1166 28.0763 14.1371C28.1197 14.1374 28.1639 14.1375 28.2088 14.1368C28.814 14.1268 29.5263 14.0172 30.1444 13.6626C31.1736 13.0717 31.3433 12.1457 31.4604 11.4837C31.5378 11.0444 31.5183 10.6478 31.4637 10.3193Z" fill="white"/>
<path d="M24.2958 14.1677C23.692 14.4737 23.255 14.472 23.0128 14.4403C21.8211 14.2838 20.8066 12.8153 20.7891 10.7489C21.2261 11.4998 21.9474 12.4741 23.1497 13.3974C23.5376 13.6964 23.9255 13.9496 24.2958 14.1677Z" fill="white"/>
<path d="M21.0167 10.6159C21.4396 11.3426 22.1394 12.289 23.31 13.188L23.3103 13.1883C23.688 13.4794 24.0666 13.7265 24.4294 13.9402L24.845 14.1851L24.4148 14.403C23.7596 14.7351 23.2685 14.7397 22.9789 14.7019H22.9787C22.2836 14.6106 21.6714 14.1418 21.238 13.4512C20.8033 12.7586 20.5351 11.8253 20.526 10.7511L20.5176 9.75842L21.0167 10.6159ZM21.1523 11.7675C21.2591 12.317 21.4458 12.7913 21.6836 13.1703C22.0597 13.7696 22.5506 14.1135 23.0472 14.1788H23.0471C23.1815 14.1963 23.4056 14.2054 23.7131 14.1174C23.4751 13.9632 23.2325 13.7939 22.9896 13.6067C22.188 12.991 21.594 12.352 21.1523 11.7675Z" fill="white"/>
<path d="M21.2734 22.2399C21.2734 22.2399 22.8969 17.6991 22.8934 17.7641C22.8899 17.8292 22.5055 22.6127 22.5055 22.6127L21.2734 22.2399Z" fill="white"/>
<path d="M27.6637 22.1643L27.5742 17.7026L28.6431 22.2997L27.6637 22.1643Z" fill="white"/>
<path d="M7.90827 25.3914L7.44141 26.0385C7.75557 26.2566 8.23296 26.5767 8.8455 26.9372C10.3163 27.806 10.7656 27.857 10.9569 27.8675C11.2184 27.8834 11.9187 27.8834 12.7682 27.3241C12.3434 27.5316 11.9661 27.6002 11.6835 27.6196C10.3093 27.7145 8.81215 26.8211 7.90827 25.3914Z" fill="white"/>
<path d="M39.2812 28.8067C39.4234 28.5218 39.5603 28.1648 39.6323 27.7427C39.7762 26.8933 39.5831 26.1845 39.4094 25.7413C39.6726 26.035 39.9622 26.4043 40.2185 26.851C40.5256 27.3839 40.6959 27.8711 40.7959 28.2615C40.6415 28.1982 40.4853 28.1366 40.3308 28.0733L39.283 28.8049L39.2812 28.8067Z" fill="white"/>
<path d="M7.37109 10.566C7.43077 10.7085 7.48869 10.8562 7.53958 11.0092C7.8204 11.8393 7.88359 12.6078 7.84848 13.2638C8.16616 12.6676 8.6102 11.5438 7.94326 10.5414C7.89587 10.4711 7.84322 10.4007 7.78355 10.3286C7.64665 10.4078 7.50799 10.4869 7.37109 10.566Z" fill="white"/>
<path d="M45.7034 11.287L46.1773 11.5174C45.663 11.8075 45.0979 12.1012 44.4766 12.3844C42.8917 13.1107 41.3665 13.5908 40.0449 13.9162C41.2753 13.5205 42.6653 12.9788 44.094 12.2243C44.6819 11.9131 45.2172 11.5983 45.7052 11.2887L45.7034 11.287Z" fill="white"/>
</g>
<defs>
<clipPath id="clip0_82_2235">
<rect width="55" height="34" fill="white"/>
</clipPath>
</defs>
</svg>
