<svg width="110" height="110" viewBox="0 0 110 110" fill="none" xmlns="http://www.w3.org/2000/svg">
<g clip-path="url(#clip0_78_17892)">
<path d="M110 0H0V110H110V0Z" fill="white"/>
<path d="M11.2414 8H8V11.2414H11.2414V8Z" fill="black"/>
<path d="M14.4828 8H11.2414V11.2414H14.4828V8Z" fill="black"/>
<path d="M17.7241 8H14.4828V11.2414H17.7241V8Z" fill="black"/>
<path d="M20.9655 8H17.7241V11.2414H20.9655V8Z" fill="black"/>
<path d="M24.2069 8H20.9655V11.2414H24.2069V8Z" fill="black"/>
<path d="M27.4483 8H24.2069V11.2414H27.4483V8Z" fill="black"/>
<path d="M30.6897 8H27.4483V11.2414H30.6897V8Z" fill="black"/>
<path d="M37.1724 8H33.931V11.2414H37.1724V8Z" fill="black"/>
<path d="M40.4138 8H37.1724V11.2414H40.4138V8Z" fill="black"/>
<path d="M43.6552 8H40.4138V11.2414H43.6552V8Z" fill="black"/>
<path d="M50.1379 8H46.8966V11.2414H50.1379V8Z" fill="black"/>
<path d="M56.6207 8H53.3793V11.2414H56.6207V8Z" fill="black"/>
<path d="M59.8621 8H56.6207V11.2414H59.8621V8Z" fill="black"/>
<path d="M69.5862 8H66.3448V11.2414H69.5862V8Z" fill="black"/>
<path d="M76.069 8H72.8276V11.2414H76.069V8Z" fill="black"/>
<path d="M82.5517 8H79.3103V11.2414H82.5517V8Z" fill="black"/>
<path d="M85.7931 8H82.5517V11.2414H85.7931V8Z" fill="black"/>
<path d="M89.0345 8H85.7931V11.2414H89.0345V8Z" fill="black"/>
<path d="M92.2759 8H89.0345V11.2414H92.2759V8Z" fill="black"/>
<path d="M95.5172 8H92.2759V11.2414H95.5172V8Z" fill="black"/>
<path d="M98.7586 8H95.5172V11.2414H98.7586V8Z" fill="black"/>
<path d="M102 8H98.7586V11.2414H102V8Z" fill="black"/>
<path d="M11.2414 11.2414H8V14.4828H11.2414V11.2414Z" fill="black"/>
<path d="M30.6897 11.2414H27.4483V14.4828H30.6897V11.2414Z" fill="black"/>
<path d="M43.6552 11.2414H40.4138V14.4828H43.6552V11.2414Z" fill="black"/>
<path d="M66.3448 11.2414H63.1034V14.4828H66.3448V11.2414Z" fill="black"/>
<path d="M82.5517 11.2414H79.3103V14.4828H82.5517V11.2414Z" fill="black"/>
<path d="M102 11.2414H98.7586V14.4828H102V11.2414Z" fill="black"/>
<path d="M11.2414 14.4828H8V17.7241H11.2414V14.4828Z" fill="black"/>
<path d="M17.7241 14.4828H14.4828V17.7241H17.7241V14.4828Z" fill="black"/>
<path d="M20.9655 14.4828H17.7241V17.7241H20.9655V14.4828Z" fill="black"/>
<path d="M24.2069 14.4828H20.9655V17.7241H24.2069V14.4828Z" fill="black"/>
<path d="M30.6897 14.4828H27.4483V17.7241H30.6897V14.4828Z" fill="black"/>
<path d="M46.8966 14.4828H43.6552V17.7241H46.8966V14.4828Z" fill="black"/>
<path d="M50.1379 14.4828H46.8966V17.7241H50.1379V14.4828Z" fill="black"/>
<path d="M82.5517 14.4828H79.3103V17.7241H82.5517V14.4828Z" fill="black"/>
<path d="M89.0345 14.4828H85.7931V17.7241H89.0345V14.4828Z" fill="black"/>
<path d="M92.2759 14.4828H89.0345V17.7241H92.2759V14.4828Z" fill="black"/>
<path d="M95.5172 14.4828H92.2759V17.7241H95.5172V14.4828Z" fill="black"/>
<path d="M102 14.4828H98.7586V17.7241H102V14.4828Z" fill="black"/>
<path d="M11.2414 17.7241H8V20.9655H11.2414V17.7241Z" fill="black"/>
<path d="M17.7241 17.7241H14.4828V20.9655H17.7241V17.7241Z" fill="black"/>
<path d="M20.9655 17.7241H17.7241V20.9655H20.9655V17.7241Z" fill="black"/>
<path d="M24.2069 17.7241H20.9655V20.9655H24.2069V17.7241Z" fill="black"/>
<path d="M30.6897 17.7241H27.4483V20.9655H30.6897V17.7241Z" fill="black"/>
<path d="M37.1724 17.7241H33.931V20.9655H37.1724V17.7241Z" fill="black"/>
<path d="M40.4138 17.7241H37.1724V20.9655H40.4138V17.7241Z" fill="black"/>
<path d="M43.6552 17.7241H40.4138V20.9655H43.6552V17.7241Z" fill="black"/>
<path d="M50.1379 17.7241H46.8966V20.9655H50.1379V17.7241Z" fill="black"/>
<path d="M53.3793 17.7241H50.1379V20.9655H53.3793V17.7241Z" fill="black"/>
<path d="M56.6207 17.7241H53.3793V20.9655H56.6207V17.7241Z" fill="black"/>
<path d="M59.8621 17.7241H56.6207V20.9655H59.8621V17.7241Z" fill="black"/>
<path d="M63.1034 17.7241H59.8621V20.9655H63.1034V17.7241Z" fill="black"/>
<path d="M66.3448 17.7241H63.1034V20.9655H66.3448V17.7241Z" fill="black"/>
<path d="M69.5862 17.7241H66.3448V20.9655H69.5862V17.7241Z" fill="black"/>
<path d="M72.8276 17.7241H69.5862V20.9655H72.8276V17.7241Z" fill="black"/>
<path d="M76.069 17.7241H72.8276V20.9655H76.069V17.7241Z" fill="black"/>
<path d="M82.5517 17.7241H79.3103V20.9655H82.5517V17.7241Z" fill="black"/>
<path d="M89.0345 17.7241H85.7931V20.9655H89.0345V17.7241Z" fill="black"/>
<path d="M92.2759 17.7241H89.0345V20.9655H92.2759V17.7241Z" fill="black"/>
<path d="M95.5172 17.7241H92.2759V20.9655H95.5172V17.7241Z" fill="black"/>
<path d="M102 17.7241H98.7586V20.9655H102V17.7241Z" fill="black"/>
<path d="M11.2414 20.9655H8V24.2069H11.2414V20.9655Z" fill="black"/>
<path d="M17.7241 20.9655H14.4828V24.2069H17.7241V20.9655Z" fill="black"/>
<path d="M20.9655 20.9655H17.7241V24.2069H20.9655V20.9655Z" fill="black"/>
<path d="M24.2069 20.9655H20.9655V24.2069H24.2069V20.9655Z" fill="black"/>
<path d="M30.6897 20.9655H27.4483V24.2069H30.6897V20.9655Z" fill="black"/>
<path d="M40.4138 20.9655H37.1724V24.2069H40.4138V20.9655Z" fill="black"/>
<path d="M46.8966 20.9655H43.6552V24.2069H46.8966V20.9655Z" fill="black"/>
<path d="M56.6207 20.9655H53.3793V24.2069H56.6207V20.9655Z" fill="black"/>
<path d="M66.3448 20.9655H63.1034V24.2069H66.3448V20.9655Z" fill="black"/>
<path d="M69.5862 20.9655H66.3448V24.2069H69.5862V20.9655Z" fill="black"/>
<path d="M82.5517 20.9655H79.3103V24.2069H82.5517V20.9655Z" fill="black"/>
<path d="M89.0345 20.9655H85.7931V24.2069H89.0345V20.9655Z" fill="black"/>
<path d="M92.2759 20.9655H89.0345V24.2069H92.2759V20.9655Z" fill="black"/>
<path d="M95.5172 20.9655H92.2759V24.2069H95.5172V20.9655Z" fill="black"/>
<path d="M102 20.9655H98.7586V24.2069H102V20.9655Z" fill="black"/>
<path d="M11.2414 24.2069H8V27.4483H11.2414V24.2069Z" fill="black"/>
<path d="M30.6897 24.2069H27.4483V27.4483H30.6897V24.2069Z" fill="black"/>
<path d="M37.1724 24.2069H33.931V27.4483H37.1724V24.2069Z" fill="black"/>
<path d="M46.8966 24.2069H43.6552V27.4483H46.8966V24.2069Z" fill="black"/>
<path d="M50.1379 24.2069H46.8966V27.4483H50.1379V24.2069Z" fill="black"/>
<path d="M56.6207 24.2069H53.3793V27.4483H56.6207V24.2069Z" fill="black"/>
<path d="M59.8621 24.2069H56.6207V27.4483H59.8621V24.2069Z" fill="black"/>
<path d="M63.1034 24.2069H59.8621V27.4483H63.1034V24.2069Z" fill="black"/>
<path d="M76.069 24.2069H72.8276V27.4483H76.069V24.2069Z" fill="black"/>
<path d="M82.5517 24.2069H79.3103V27.4483H82.5517V24.2069Z" fill="black"/>
<path d="M102 24.2069H98.7586V27.4483H102V24.2069Z" fill="black"/>
<path d="M11.2414 27.4483H8V30.6897H11.2414V27.4483Z" fill="black"/>
<path d="M14.4828 27.4483H11.2414V30.6897H14.4828V27.4483Z" fill="black"/>
<path d="M17.7241 27.4483H14.4828V30.6897H17.7241V27.4483Z" fill="black"/>
<path d="M20.9655 27.4483H17.7241V30.6897H20.9655V27.4483Z" fill="black"/>
<path d="M24.2069 27.4483H20.9655V30.6897H24.2069V27.4483Z" fill="black"/>
<path d="M27.4483 27.4483H24.2069V30.6897H27.4483V27.4483Z" fill="black"/>
<path d="M30.6897 27.4483H27.4483V30.6897H30.6897V27.4483Z" fill="black"/>
<path d="M37.1724 27.4483H33.931V30.6897H37.1724V27.4483Z" fill="black"/>
<path d="M43.6552 27.4483H40.4138V30.6897H43.6552V27.4483Z" fill="black"/>
<path d="M50.1379 27.4483H46.8966V30.6897H50.1379V27.4483Z" fill="black"/>
<path d="M56.6207 27.4483H53.3793V30.6897H56.6207V27.4483Z" fill="black"/>
<path d="M63.1034 27.4483H59.8621V30.6897H63.1034V27.4483Z" fill="black"/>
<path d="M69.5862 27.4483H66.3448V30.6897H69.5862V27.4483Z" fill="black"/>
<path d="M76.069 27.4483H72.8276V30.6897H76.069V27.4483Z" fill="black"/>
<path d="M82.5517 27.4483H79.3103V30.6897H82.5517V27.4483Z" fill="black"/>
<path d="M85.7931 27.4483H82.5517V30.6897H85.7931V27.4483Z" fill="black"/>
<path d="M89.0345 27.4483H85.7931V30.6897H89.0345V27.4483Z" fill="black"/>
<path d="M92.2759 27.4483H89.0345V30.6897H92.2759V27.4483Z" fill="black"/>
<path d="M95.5172 27.4483H92.2759V30.6897H95.5172V27.4483Z" fill="black"/>
<path d="M98.7586 27.4483H95.5172V30.6897H98.7586V27.4483Z" fill="black"/>
<path d="M102 27.4483H98.7586V30.6897H102V27.4483Z" fill="black"/>
<path d="M40.4138 30.6897H37.1724V33.931H40.4138V30.6897Z" fill="black"/>
<path d="M43.6552 30.6897H40.4138V33.931H43.6552V30.6897Z" fill="black"/>
<path d="M46.8966 30.6897H43.6552V33.931H46.8966V30.6897Z" fill="black"/>
<path d="M50.1379 30.6897H46.8966V33.931H50.1379V30.6897Z" fill="black"/>
<path d="M59.8621 30.6897H56.6207V33.931H59.8621V30.6897Z" fill="black"/>
<path d="M63.1034 30.6897H59.8621V33.931H63.1034V30.6897Z" fill="black"/>
<path d="M76.069 30.6897H72.8276V33.931H76.069V30.6897Z" fill="black"/>
<path d="M27.4483 33.931H24.2069V37.1724H27.4483V33.931Z" fill="black"/>
<path d="M30.6897 33.931H27.4483V37.1724H30.6897V33.931Z" fill="black"/>
<path d="M37.1724 33.931H33.931V37.1724H37.1724V33.931Z" fill="black"/>
<path d="M43.6552 33.931H40.4138V37.1724H43.6552V33.931Z" fill="black"/>
<path d="M50.1379 33.931H46.8966V37.1724H50.1379V33.931Z" fill="black"/>
<path d="M53.3793 33.931H50.1379V37.1724H53.3793V33.931Z" fill="black"/>
<path d="M56.6207 33.931H53.3793V37.1724H56.6207V33.931Z" fill="black"/>
<path d="M59.8621 33.931H56.6207V37.1724H59.8621V33.931Z" fill="black"/>
<path d="M66.3448 33.931H63.1034V37.1724H66.3448V33.931Z" fill="black"/>
<path d="M69.5862 33.931H66.3448V37.1724H69.5862V33.931Z" fill="black"/>
<path d="M72.8276 33.931H69.5862V37.1724H72.8276V33.931Z" fill="black"/>
<path d="M76.069 33.931H72.8276V37.1724H76.069V33.931Z" fill="black"/>
<path d="M79.3103 33.931H76.069V37.1724H79.3103V33.931Z" fill="black"/>
<path d="M85.7931 33.931H82.5517V37.1724H85.7931V33.931Z" fill="black"/>
<path d="M92.2759 33.931H89.0345V37.1724H92.2759V33.931Z" fill="black"/>
<path d="M102 33.931H98.7586V37.1724H102V33.931Z" fill="black"/>
<path d="M11.2414 37.1724H8V40.4138H11.2414V37.1724Z" fill="black"/>
<path d="M14.4828 37.1724H11.2414V40.4138H14.4828V37.1724Z" fill="black"/>
<path d="M17.7241 37.1724H14.4828V40.4138H17.7241V37.1724Z" fill="black"/>
<path d="M20.9655 37.1724H17.7241V40.4138H20.9655V37.1724Z" fill="black"/>
<path d="M27.4483 37.1724H24.2069V40.4138H27.4483V37.1724Z" fill="black"/>
<path d="M33.931 37.1724H30.6897V40.4138H33.931V37.1724Z" fill="black"/>
<path d="M40.4138 37.1724H37.1724V40.4138H40.4138V37.1724Z" fill="black"/>
<path d="M56.6207 37.1724H53.3793V40.4138H56.6207V37.1724Z" fill="black"/>
<path d="M59.8621 37.1724H56.6207V40.4138H59.8621V37.1724Z" fill="black"/>
<path d="M72.8276 37.1724H69.5862V40.4138H72.8276V37.1724Z" fill="black"/>
<path d="M82.5517 37.1724H79.3103V40.4138H82.5517V37.1724Z" fill="black"/>
<path d="M85.7931 37.1724H82.5517V40.4138H85.7931V37.1724Z" fill="black"/>
<path d="M89.0345 37.1724H85.7931V40.4138H89.0345V37.1724Z" fill="black"/>
<path d="M92.2759 37.1724H89.0345V40.4138H92.2759V37.1724Z" fill="black"/>
<path d="M95.5172 37.1724H92.2759V40.4138H95.5172V37.1724Z" fill="black"/>
<path d="M102 37.1724H98.7586V40.4138H102V37.1724Z" fill="black"/>
<path d="M17.7241 40.4138H14.4828V43.6552H17.7241V40.4138Z" fill="black"/>
<path d="M27.4483 40.4138H24.2069V43.6552H27.4483V40.4138Z" fill="black"/>
<path d="M30.6897 40.4138H27.4483V43.6552H30.6897V40.4138Z" fill="black"/>
<path d="M43.6552 40.4138H40.4138V43.6552H43.6552V40.4138Z" fill="black"/>
<path d="M46.8966 40.4138H43.6552V43.6552H46.8966V40.4138Z" fill="black"/>
<path d="M50.1379 40.4138H46.8966V43.6552H50.1379V40.4138Z" fill="black"/>
<path d="M63.1034 40.4138H59.8621V43.6552H63.1034V40.4138Z" fill="black"/>
<path d="M76.069 40.4138H72.8276V43.6552H76.069V40.4138Z" fill="black"/>
<path d="M79.3103 40.4138H76.069V43.6552H79.3103V40.4138Z" fill="black"/>
<path d="M85.7931 40.4138H82.5517V43.6552H85.7931V40.4138Z" fill="black"/>
<path d="M89.0345 40.4138H85.7931V43.6552H89.0345V40.4138Z" fill="black"/>
<path d="M92.2759 40.4138H89.0345V43.6552H92.2759V40.4138Z" fill="black"/>
<path d="M98.7586 40.4138H95.5172V43.6552H98.7586V40.4138Z" fill="black"/>
<path d="M102 40.4138H98.7586V43.6552H102V40.4138Z" fill="black"/>
<path d="M11.2414 43.6552H8V46.8966H11.2414V43.6552Z" fill="black"/>
<path d="M20.9655 43.6552H17.7241V46.8966H20.9655V43.6552Z" fill="black"/>
<path d="M24.2069 43.6552H20.9655V46.8966H24.2069V43.6552Z" fill="black"/>
<path d="M43.6552 43.6552H40.4138V46.8966H43.6552V43.6552Z" fill="black"/>
<path d="M59.8621 43.6552H56.6207V46.8966H59.8621V43.6552Z" fill="black"/>
<path d="M69.5862 43.6552H66.3448V46.8966H69.5862V43.6552Z" fill="black"/>
<path d="M79.3103 43.6552H76.069V46.8966H79.3103V43.6552Z" fill="black"/>
<path d="M82.5517 43.6552H79.3103V46.8966H82.5517V43.6552Z" fill="black"/>
<path d="M92.2759 43.6552H89.0345V46.8966H92.2759V43.6552Z" fill="black"/>
<path d="M95.5172 43.6552H92.2759V46.8966H95.5172V43.6552Z" fill="black"/>
<path d="M98.7586 43.6552H95.5172V46.8966H98.7586V43.6552Z" fill="black"/>
<path d="M102 43.6552H98.7586V46.8966H102V43.6552Z" fill="black"/>
<path d="M24.2069 46.8966H20.9655V50.1379H24.2069V46.8966Z" fill="black"/>
<path d="M30.6897 46.8966H27.4483V50.1379H30.6897V46.8966Z" fill="black"/>
<path d="M43.6552 46.8966H40.4138V50.1379H43.6552V46.8966Z" fill="black"/>
<path d="M50.1379 46.8966H46.8966V50.1379H50.1379V46.8966Z" fill="black"/>
<path d="M59.8621 46.8966H56.6207V50.1379H59.8621V46.8966Z" fill="black"/>
<path d="M63.1034 46.8966H59.8621V50.1379H63.1034V46.8966Z" fill="black"/>
<path d="M66.3448 46.8966H63.1034V50.1379H66.3448V46.8966Z" fill="black"/>
<path d="M72.8276 46.8966H69.5862V50.1379H72.8276V46.8966Z" fill="black"/>
<path d="M76.069 46.8966H72.8276V50.1379H76.069V46.8966Z" fill="black"/>
<path d="M85.7931 46.8966H82.5517V50.1379H85.7931V46.8966Z" fill="black"/>
<path d="M89.0345 46.8966H85.7931V50.1379H89.0345V46.8966Z" fill="black"/>
<path d="M95.5172 46.8966H92.2759V50.1379H95.5172V46.8966Z" fill="black"/>
<path d="M98.7586 46.8966H95.5172V50.1379H98.7586V46.8966Z" fill="black"/>
<path d="M102 46.8966H98.7586V50.1379H102V46.8966Z" fill="black"/>
<path d="M20.9655 50.1379H17.7241V53.3793H20.9655V50.1379Z" fill="black"/>
<path d="M33.931 50.1379H30.6897V53.3793H33.931V50.1379Z" fill="black"/>
<path d="M40.4138 50.1379H37.1724V53.3793H40.4138V50.1379Z" fill="black"/>
<path d="M43.6552 50.1379H40.4138V53.3793H43.6552V50.1379Z" fill="black"/>
<path d="M46.8966 50.1379H43.6552V53.3793H46.8966V50.1379Z" fill="black"/>
<path d="M53.3793 50.1379H50.1379V53.3793H53.3793V50.1379Z" fill="black"/>
<path d="M56.6207 50.1379H53.3793V53.3793H56.6207V50.1379Z" fill="black"/>
<path d="M63.1034 50.1379H59.8621V53.3793H63.1034V50.1379Z" fill="black"/>
<path d="M66.3448 50.1379H63.1034V53.3793H66.3448V50.1379Z" fill="black"/>
<path d="M92.2759 50.1379H89.0345V53.3793H92.2759V50.1379Z" fill="black"/>
<path d="M95.5172 50.1379H92.2759V53.3793H95.5172V50.1379Z" fill="black"/>
<path d="M98.7586 50.1379H95.5172V53.3793H98.7586V50.1379Z" fill="black"/>
<path d="M11.2414 53.3793H8V56.6207H11.2414V53.3793Z" fill="black"/>
<path d="M17.7241 53.3793H14.4828V56.6207H17.7241V53.3793Z" fill="black"/>
<path d="M30.6897 53.3793H27.4483V56.6207H30.6897V53.3793Z" fill="black"/>
<path d="M37.1724 53.3793H33.931V56.6207H37.1724V53.3793Z" fill="black"/>
<path d="M43.6552 53.3793H40.4138V56.6207H43.6552V53.3793Z" fill="black"/>
<path d="M50.1379 53.3793H46.8966V56.6207H50.1379V53.3793Z" fill="black"/>
<path d="M53.3793 53.3793H50.1379V56.6207H53.3793V53.3793Z" fill="black"/>
<path d="M56.6207 53.3793H53.3793V56.6207H56.6207V53.3793Z" fill="black"/>
<path d="M66.3448 53.3793H63.1034V56.6207H66.3448V53.3793Z" fill="black"/>
<path d="M69.5862 53.3793H66.3448V56.6207H69.5862V53.3793Z" fill="black"/>
<path d="M72.8276 53.3793H69.5862V56.6207H72.8276V53.3793Z" fill="black"/>
<path d="M79.3103 53.3793H76.069V56.6207H79.3103V53.3793Z" fill="black"/>
<path d="M85.7931 53.3793H82.5517V56.6207H85.7931V53.3793Z" fill="black"/>
<path d="M95.5172 53.3793H92.2759V56.6207H95.5172V53.3793Z" fill="black"/>
<path d="M98.7586 53.3793H95.5172V56.6207H98.7586V53.3793Z" fill="black"/>
<path d="M102 53.3793H98.7586V56.6207H102V53.3793Z" fill="black"/>
<path d="M17.7241 56.6207H14.4828V59.8621H17.7241V56.6207Z" fill="black"/>
<path d="M27.4483 56.6207H24.2069V59.8621H27.4483V56.6207Z" fill="black"/>
<path d="M33.931 56.6207H30.6897V59.8621H33.931V56.6207Z" fill="black"/>
<path d="M40.4138 56.6207H37.1724V59.8621H40.4138V56.6207Z" fill="black"/>
<path d="M43.6552 56.6207H40.4138V59.8621H43.6552V56.6207Z" fill="black"/>
<path d="M50.1379 56.6207H46.8966V59.8621H50.1379V56.6207Z" fill="black"/>
<path d="M53.3793 56.6207H50.1379V59.8621H53.3793V56.6207Z" fill="black"/>
<path d="M59.8621 56.6207H56.6207V59.8621H59.8621V56.6207Z" fill="black"/>
<path d="M63.1034 56.6207H59.8621V59.8621H63.1034V56.6207Z" fill="black"/>
<path d="M76.069 56.6207H72.8276V59.8621H76.069V56.6207Z" fill="black"/>
<path d="M102 56.6207H98.7586V59.8621H102V56.6207Z" fill="black"/>
<path d="M14.4828 59.8621H11.2414V63.1034H14.4828V59.8621Z" fill="black"/>
<path d="M20.9655 59.8621H17.7241V63.1034H20.9655V59.8621Z" fill="black"/>
<path d="M27.4483 59.8621H24.2069V63.1034H27.4483V59.8621Z" fill="black"/>
<path d="M30.6897 59.8621H27.4483V63.1034H30.6897V59.8621Z" fill="black"/>
<path d="M33.931 59.8621H30.6897V63.1034H33.931V59.8621Z" fill="black"/>
<path d="M37.1724 59.8621H33.931V63.1034H37.1724V59.8621Z" fill="black"/>
<path d="M40.4138 59.8621H37.1724V63.1034H40.4138V59.8621Z" fill="black"/>
<path d="M46.8966 59.8621H43.6552V63.1034H46.8966V59.8621Z" fill="black"/>
<path d="M50.1379 59.8621H46.8966V63.1034H50.1379V59.8621Z" fill="black"/>
<path d="M53.3793 59.8621H50.1379V63.1034H53.3793V59.8621Z" fill="black"/>
<path d="M59.8621 59.8621H56.6207V63.1034H59.8621V59.8621Z" fill="black"/>
<path d="M66.3448 59.8621H63.1034V63.1034H66.3448V59.8621Z" fill="black"/>
<path d="M76.069 59.8621H72.8276V63.1034H76.069V59.8621Z" fill="black"/>
<path d="M79.3103 59.8621H76.069V63.1034H79.3103V59.8621Z" fill="black"/>
<path d="M82.5517 59.8621H79.3103V63.1034H82.5517V59.8621Z" fill="black"/>
<path d="M89.0345 59.8621H85.7931V63.1034H89.0345V59.8621Z" fill="black"/>
<path d="M95.5172 59.8621H92.2759V63.1034H95.5172V59.8621Z" fill="black"/>
<path d="M98.7586 59.8621H95.5172V63.1034H98.7586V59.8621Z" fill="black"/>
<path d="M17.7241 63.1034H14.4828V66.3448H17.7241V63.1034Z" fill="black"/>
<path d="M33.931 63.1034H30.6897V66.3448H33.931V63.1034Z" fill="black"/>
<path d="M40.4138 63.1034H37.1724V66.3448H40.4138V63.1034Z" fill="black"/>
<path d="M50.1379 63.1034H46.8966V66.3448H50.1379V63.1034Z" fill="black"/>
<path d="M53.3793 63.1034H50.1379V66.3448H53.3793V63.1034Z" fill="black"/>
<path d="M56.6207 63.1034H53.3793V66.3448H56.6207V63.1034Z" fill="black"/>
<path d="M59.8621 63.1034H56.6207V66.3448H59.8621V63.1034Z" fill="black"/>
<path d="M63.1034 63.1034H59.8621V66.3448H63.1034V63.1034Z" fill="black"/>
<path d="M72.8276 63.1034H69.5862V66.3448H72.8276V63.1034Z" fill="black"/>
<path d="M82.5517 63.1034H79.3103V66.3448H82.5517V63.1034Z" fill="black"/>
<path d="M89.0345 63.1034H85.7931V66.3448H89.0345V63.1034Z" fill="black"/>
<path d="M95.5172 63.1034H92.2759V66.3448H95.5172V63.1034Z" fill="black"/>
<path d="M98.7586 63.1034H95.5172V66.3448H98.7586V63.1034Z" fill="black"/>
<path d="M102 63.1034H98.7586V66.3448H102V63.1034Z" fill="black"/>
<path d="M20.9655 66.3448H17.7241V69.5862H20.9655V66.3448Z" fill="black"/>
<path d="M30.6897 66.3448H27.4483V69.5862H30.6897V66.3448Z" fill="black"/>
<path d="M33.931 66.3448H30.6897V69.5862H33.931V66.3448Z" fill="black"/>
<path d="M40.4138 66.3448H37.1724V69.5862H40.4138V66.3448Z" fill="black"/>
<path d="M46.8966 66.3448H43.6552V69.5862H46.8966V66.3448Z" fill="black"/>
<path d="M59.8621 66.3448H56.6207V69.5862H59.8621V66.3448Z" fill="black"/>
<path d="M72.8276 66.3448H69.5862V69.5862H72.8276V66.3448Z" fill="black"/>
<path d="M79.3103 66.3448H76.069V69.5862H79.3103V66.3448Z" fill="black"/>
<path d="M82.5517 66.3448H79.3103V69.5862H82.5517V66.3448Z" fill="black"/>
<path d="M92.2759 66.3448H89.0345V69.5862H92.2759V66.3448Z" fill="black"/>
<path d="M95.5172 66.3448H92.2759V69.5862H95.5172V66.3448Z" fill="black"/>
<path d="M98.7586 66.3448H95.5172V69.5862H98.7586V66.3448Z" fill="black"/>
<path d="M102 66.3448H98.7586V69.5862H102V66.3448Z" fill="black"/>
<path d="M11.2414 69.5862H8V72.8276H11.2414V69.5862Z" fill="black"/>
<path d="M17.7241 69.5862H14.4828V72.8276H17.7241V69.5862Z" fill="black"/>
<path d="M27.4483 69.5862H24.2069V72.8276H27.4483V69.5862Z" fill="black"/>
<path d="M33.931 69.5862H30.6897V72.8276H33.931V69.5862Z" fill="black"/>
<path d="M37.1724 69.5862H33.931V72.8276H37.1724V69.5862Z" fill="black"/>
<path d="M43.6552 69.5862H40.4138V72.8276H43.6552V69.5862Z" fill="black"/>
<path d="M46.8966 69.5862H43.6552V72.8276H46.8966V69.5862Z" fill="black"/>
<path d="M50.1379 69.5862H46.8966V72.8276H50.1379V69.5862Z" fill="black"/>
<path d="M53.3793 69.5862H50.1379V72.8276H53.3793V69.5862Z" fill="black"/>
<path d="M59.8621 69.5862H56.6207V72.8276H59.8621V69.5862Z" fill="black"/>
<path d="M63.1034 69.5862H59.8621V72.8276H63.1034V69.5862Z" fill="black"/>
<path d="M76.069 69.5862H72.8276V72.8276H76.069V69.5862Z" fill="black"/>
<path d="M79.3103 69.5862H76.069V72.8276H79.3103V69.5862Z" fill="black"/>
<path d="M95.5172 69.5862H92.2759V72.8276H95.5172V69.5862Z" fill="black"/>
<path d="M98.7586 69.5862H95.5172V72.8276H98.7586V69.5862Z" fill="black"/>
<path d="M102 69.5862H98.7586V72.8276H102V69.5862Z" fill="black"/>
<path d="M17.7241 72.8276H14.4828V76.069H17.7241V72.8276Z" fill="black"/>
<path d="M30.6897 72.8276H27.4483V76.069H30.6897V72.8276Z" fill="black"/>
<path d="M33.931 72.8276H30.6897V76.069H33.931V72.8276Z" fill="black"/>
<path d="M40.4138 72.8276H37.1724V76.069H40.4138V72.8276Z" fill="black"/>
<path d="M50.1379 72.8276H46.8966V76.069H50.1379V72.8276Z" fill="black"/>
<path d="M53.3793 72.8276H50.1379V76.069H53.3793V72.8276Z" fill="black"/>
<path d="M56.6207 72.8276H53.3793V76.069H56.6207V72.8276Z" fill="black"/>
<path d="M59.8621 72.8276H56.6207V76.069H59.8621V72.8276Z" fill="black"/>
<path d="M63.1034 72.8276H59.8621V76.069H63.1034V72.8276Z" fill="black"/>
<path d="M69.5862 72.8276H66.3448V76.069H69.5862V72.8276Z" fill="black"/>
<path d="M72.8276 72.8276H69.5862V76.069H72.8276V72.8276Z" fill="black"/>
<path d="M76.069 72.8276H72.8276V76.069H76.069V72.8276Z" fill="black"/>
<path d="M79.3103 72.8276H76.069V76.069H79.3103V72.8276Z" fill="black"/>
<path d="M82.5517 72.8276H79.3103V76.069H82.5517V72.8276Z" fill="black"/>
<path d="M85.7931 72.8276H82.5517V76.069H85.7931V72.8276Z" fill="black"/>
<path d="M89.0345 72.8276H85.7931V76.069H89.0345V72.8276Z" fill="black"/>
<path d="M92.2759 72.8276H89.0345V76.069H92.2759V72.8276Z" fill="black"/>
<path d="M95.5172 72.8276H92.2759V76.069H95.5172V72.8276Z" fill="black"/>
<path d="M98.7586 72.8276H95.5172V76.069H98.7586V72.8276Z" fill="black"/>
<path d="M102 72.8276H98.7586V76.069H102V72.8276Z" fill="black"/>
<path d="M37.1724 76.069H33.931V79.3103H37.1724V76.069Z" fill="black"/>
<path d="M46.8966 76.069H43.6552V79.3103H46.8966V76.069Z" fill="black"/>
<path d="M50.1379 76.069H46.8966V79.3103H50.1379V76.069Z" fill="black"/>
<path d="M53.3793 76.069H50.1379V79.3103H53.3793V76.069Z" fill="black"/>
<path d="M63.1034 76.069H59.8621V79.3103H63.1034V76.069Z" fill="black"/>
<path d="M66.3448 76.069H63.1034V79.3103H66.3448V76.069Z" fill="black"/>
<path d="M69.5862 76.069H66.3448V79.3103H69.5862V76.069Z" fill="black"/>
<path d="M72.8276 76.069H69.5862V79.3103H72.8276V76.069Z" fill="black"/>
<path d="M76.069 76.069H72.8276V79.3103H76.069V76.069Z" fill="black"/>
<path d="M89.0345 76.069H85.7931V79.3103H89.0345V76.069Z" fill="black"/>
<path d="M95.5172 76.069H92.2759V79.3103H95.5172V76.069Z" fill="black"/>
<path d="M11.2414 79.3103H8V82.5517H11.2414V79.3103Z" fill="black"/>
<path d="M14.4828 79.3103H11.2414V82.5517H14.4828V79.3103Z" fill="black"/>
<path d="M17.7241 79.3103H14.4828V82.5517H17.7241V79.3103Z" fill="black"/>
<path d="M20.9655 79.3103H17.7241V82.5517H20.9655V79.3103Z" fill="black"/>
<path d="M24.2069 79.3103H20.9655V82.5517H24.2069V79.3103Z" fill="black"/>
<path d="M27.4483 79.3103H24.2069V82.5517H27.4483V79.3103Z" fill="black"/>
<path d="M30.6897 79.3103H27.4483V82.5517H30.6897V79.3103Z" fill="black"/>
<path d="M40.4138 79.3103H37.1724V82.5517H40.4138V79.3103Z" fill="black"/>
<path d="M46.8966 79.3103H43.6552V82.5517H46.8966V79.3103Z" fill="black"/>
<path d="M50.1379 79.3103H46.8966V82.5517H50.1379V79.3103Z" fill="black"/>
<path d="M56.6207 79.3103H53.3793V82.5517H56.6207V79.3103Z" fill="black"/>
<path d="M66.3448 79.3103H63.1034V82.5517H66.3448V79.3103Z" fill="black"/>
<path d="M69.5862 79.3103H66.3448V82.5517H69.5862V79.3103Z" fill="black"/>
<path d="M76.069 79.3103H72.8276V82.5517H76.069V79.3103Z" fill="black"/>
<path d="M82.5517 79.3103H79.3103V82.5517H82.5517V79.3103Z" fill="black"/>
<path d="M89.0345 79.3103H85.7931V82.5517H89.0345V79.3103Z" fill="black"/>
<path d="M92.2759 79.3103H89.0345V82.5517H92.2759V79.3103Z" fill="black"/>
<path d="M11.2414 82.5517H8V85.7931H11.2414V82.5517Z" fill="black"/>
<path d="M30.6897 82.5517H27.4483V85.7931H30.6897V82.5517Z" fill="black"/>
<path d="M37.1724 82.5517H33.931V85.7931H37.1724V82.5517Z" fill="black"/>
<path d="M46.8966 82.5517H43.6552V85.7931H46.8966V82.5517Z" fill="black"/>
<path d="M66.3448 82.5517H63.1034V85.7931H66.3448V82.5517Z" fill="black"/>
<path d="M76.069 82.5517H72.8276V85.7931H76.069V82.5517Z" fill="black"/>
<path d="M89.0345 82.5517H85.7931V85.7931H89.0345V82.5517Z" fill="black"/>
<path d="M92.2759 82.5517H89.0345V85.7931H92.2759V82.5517Z" fill="black"/>
<path d="M102 82.5517H98.7586V85.7931H102V82.5517Z" fill="black"/>
<path d="M11.2414 85.7931H8V89.0345H11.2414V85.7931Z" fill="black"/>
<path d="M17.7241 85.7931H14.4828V89.0345H17.7241V85.7931Z" fill="black"/>
<path d="M20.9655 85.7931H17.7241V89.0345H20.9655V85.7931Z" fill="black"/>
<path d="M24.2069 85.7931H20.9655V89.0345H24.2069V85.7931Z" fill="black"/>
<path d="M30.6897 85.7931H27.4483V89.0345H30.6897V85.7931Z" fill="black"/>
<path d="M43.6552 85.7931H40.4138V89.0345H43.6552V85.7931Z" fill="black"/>
<path d="M56.6207 85.7931H53.3793V89.0345H56.6207V85.7931Z" fill="black"/>
<path d="M72.8276 85.7931H69.5862V89.0345H72.8276V85.7931Z" fill="black"/>
<path d="M76.069 85.7931H72.8276V89.0345H76.069V85.7931Z" fill="black"/>
<path d="M79.3103 85.7931H76.069V89.0345H79.3103V85.7931Z" fill="black"/>
<path d="M82.5517 85.7931H79.3103V89.0345H82.5517V85.7931Z" fill="black"/>
<path d="M85.7931 85.7931H82.5517V89.0345H85.7931V85.7931Z" fill="black"/>
<path d="M89.0345 85.7931H85.7931V89.0345H89.0345V85.7931Z" fill="black"/>
<path d="M92.2759 85.7931H89.0345V89.0345H92.2759V85.7931Z" fill="black"/>
<path d="M95.5172 85.7931H92.2759V89.0345H95.5172V85.7931Z" fill="black"/>
<path d="M98.7586 85.7931H95.5172V89.0345H98.7586V85.7931Z" fill="black"/>
<path d="M11.2414 89.0345H8V92.2759H11.2414V89.0345Z" fill="black"/>
<path d="M17.7241 89.0345H14.4828V92.2759H17.7241V89.0345Z" fill="black"/>
<path d="M20.9655 89.0345H17.7241V92.2759H20.9655V89.0345Z" fill="black"/>
<path d="M24.2069 89.0345H20.9655V92.2759H24.2069V89.0345Z" fill="black"/>
<path d="M30.6897 89.0345H27.4483V92.2759H30.6897V89.0345Z" fill="black"/>
<path d="M40.4138 89.0345H37.1724V92.2759H40.4138V89.0345Z" fill="black"/>
<path d="M43.6552 89.0345H40.4138V92.2759H43.6552V89.0345Z" fill="black"/>
<path d="M50.1379 89.0345H46.8966V92.2759H50.1379V89.0345Z" fill="black"/>
<path d="M56.6207 89.0345H53.3793V92.2759H56.6207V89.0345Z" fill="black"/>
<path d="M59.8621 89.0345H56.6207V92.2759H59.8621V89.0345Z" fill="black"/>
<path d="M66.3448 89.0345H63.1034V92.2759H66.3448V89.0345Z" fill="black"/>
<path d="M85.7931 89.0345H82.5517V92.2759H85.7931V89.0345Z" fill="black"/>
<path d="M92.2759 89.0345H89.0345V92.2759H92.2759V89.0345Z" fill="black"/>
<path d="M95.5172 89.0345H92.2759V92.2759H95.5172V89.0345Z" fill="black"/>
<path d="M102 89.0345H98.7586V92.2759H102V89.0345Z" fill="black"/>
<path d="M11.2414 92.2759H8V95.5172H11.2414V92.2759Z" fill="black"/>
<path d="M17.7241 92.2759H14.4828V95.5172H17.7241V92.2759Z" fill="black"/>
<path d="M20.9655 92.2759H17.7241V95.5172H20.9655V92.2759Z" fill="black"/>
<path d="M24.2069 92.2759H20.9655V95.5172H24.2069V92.2759Z" fill="black"/>
<path d="M30.6897 92.2759H27.4483V95.5172H30.6897V92.2759Z" fill="black"/>
<path d="M43.6552 92.2759H40.4138V95.5172H43.6552V92.2759Z" fill="black"/>
<path d="M46.8966 92.2759H43.6552V95.5172H46.8966V92.2759Z" fill="black"/>
<path d="M56.6207 92.2759H53.3793V95.5172H56.6207V92.2759Z" fill="black"/>
<path d="M76.069 92.2759H72.8276V95.5172H76.069V92.2759Z" fill="black"/>
<path d="M79.3103 92.2759H76.069V95.5172H79.3103V92.2759Z" fill="black"/>
<path d="M85.7931 92.2759H82.5517V95.5172H85.7931V92.2759Z" fill="black"/>
<path d="M92.2759 92.2759H89.0345V95.5172H92.2759V92.2759Z" fill="black"/>
<path d="M95.5172 92.2759H92.2759V95.5172H95.5172V92.2759Z" fill="black"/>
<path d="M11.2414 95.5172H8V98.7586H11.2414V95.5172Z" fill="black"/>
<path d="M30.6897 95.5172H27.4483V98.7586H30.6897V95.5172Z" fill="black"/>
<path d="M43.6552 95.5172H40.4138V98.7586H43.6552V95.5172Z" fill="black"/>
<path d="M46.8966 95.5172H43.6552V98.7586H46.8966V95.5172Z" fill="black"/>
<path d="M50.1379 95.5172H46.8966V98.7586H50.1379V95.5172Z" fill="black"/>
<path d="M56.6207 95.5172H53.3793V98.7586H56.6207V95.5172Z" fill="black"/>
<path d="M59.8621 95.5172H56.6207V98.7586H59.8621V95.5172Z" fill="black"/>
<path d="M63.1034 95.5172H59.8621V98.7586H63.1034V95.5172Z" fill="black"/>
<path d="M69.5862 95.5172H66.3448V98.7586H69.5862V95.5172Z" fill="black"/>
<path d="M72.8276 95.5172H69.5862V98.7586H72.8276V95.5172Z" fill="black"/>
<path d="M79.3103 95.5172H76.069V98.7586H79.3103V95.5172Z" fill="black"/>
<path d="M82.5517 95.5172H79.3103V98.7586H82.5517V95.5172Z" fill="black"/>
<path d="M92.2759 95.5172H89.0345V98.7586H92.2759V95.5172Z" fill="black"/>
<path d="M98.7586 95.5172H95.5172V98.7586H98.7586V95.5172Z" fill="black"/>
<path d="M102 95.5172H98.7586V98.7586H102V95.5172Z" fill="black"/>
<path d="M11.2414 98.7586H8V102H11.2414V98.7586Z" fill="black"/>
<path d="M14.4828 98.7586H11.2414V102H14.4828V98.7586Z" fill="black"/>
<path d="M17.7241 98.7586H14.4828V102H17.7241V98.7586Z" fill="black"/>
<path d="M20.9655 98.7586H17.7241V102H20.9655V98.7586Z" fill="black"/>
<path d="M24.2069 98.7586H20.9655V102H24.2069V98.7586Z" fill="black"/>
<path d="M27.4483 98.7586H24.2069V102H27.4483V98.7586Z" fill="black"/>
<path d="M30.6897 98.7586H27.4483V102H30.6897V98.7586Z" fill="black"/>
<path d="M40.4138 98.7586H37.1724V102H40.4138V98.7586Z" fill="black"/>
<path d="M50.1379 98.7586H46.8966V102H50.1379V98.7586Z" fill="black"/>
<path d="M56.6207 98.7586H53.3793V102H56.6207V98.7586Z" fill="black"/>
<path d="M66.3448 98.7586H63.1034V102H66.3448V98.7586Z" fill="black"/>
<path d="M69.5862 98.7586H66.3448V102H69.5862V98.7586Z" fill="black"/>
<path d="M72.8276 98.7586H69.5862V102H72.8276V98.7586Z" fill="black"/>
<path d="M79.3103 98.7586H76.069V102H79.3103V98.7586Z" fill="black"/>
<path d="M89.0345 98.7586H85.7931V102H89.0345V98.7586Z" fill="black"/>
<path d="M95.5172 98.7586H92.2759V102H95.5172V98.7586Z" fill="black"/>
</g>
<defs>
<clipPath id="clip0_78_17892">
<rect width="110" height="110" rx="8" fill="white"/>
</clipPath>
</defs>
</svg>
