<svg width="18" height="18" viewBox="0 0 18 18" fill="none" xmlns="http://www.w3.org/2000/svg">
<path d="M9.10543 4.6802C10.1857 6.36903 11.6301 7.80395 13.3382 8.87393L6.08126 16.1319C5.63354 16.5797 5.40891 16.8035 5.13389 16.9507C4.85903 17.0977 4.54867 17.1599 3.92834 17.284L0.687125 17.932C0.336781 18.0021 0.16137 18.0368 0.0617178 17.9372C-0.0375999 17.8375 -0.00309056 17.6626 0.066861 17.3128L0.715927 14.0716C0.840103 13.4507 0.902018 13.14 1.0492 12.865C1.19639 12.5901 1.42034 12.3663 1.86799 11.9187L9.10543 4.6802ZM13.723 0.219034C14.3123 -0.0730207 15.0047 -0.0729969 15.594 0.219034C15.9038 0.37254 16.1913 0.659971 16.7656 1.23429C17.3397 1.80838 17.6274 2.09518 17.7809 2.40487C18.0729 2.99418 18.0729 3.68661 17.7809 4.27595C17.6274 4.58573 17.34 4.87324 16.7656 5.44756L14.873 7.33921C13.1112 6.33714 11.6522 4.88737 10.6371 3.14857L12.5524 1.23429C13.1265 0.660198 13.4133 0.372585 13.723 0.219034Z" fill="white"/>
</svg>
