<svg width="108" height="107" viewBox="0 0 108 107" fill="none" xmlns="http://www.w3.org/2000/svg">
<path d="M0.879349 53.5C0.594448 53.5026 0.313635 53.5026 0.0371094 53.5C0.313635 53.4974 0.594448 53.4974 0.879349 53.5C18.968 53.3342 53.5371 42.5301 53.5371 0C53.5371 17.8333 64.2371 53.5 107.037 53.5C89.2038 53.5 53.5371 64.2 53.5371 107C53.5371 64.4699 18.968 53.6658 0.879349 53.5Z" fill="white"/>
<path d="M0.0371094 53.5C17.8704 53.6667 53.5371 43.2 53.5371 0C53.5371 17.8333 64.2371 53.5 107.037 53.5C89.2038 53.5 53.5371 64.2 53.5371 107C53.5371 63.8 17.8704 53.3333 0.0371094 53.5Z" stroke="white" stroke-width="8"/>
</svg>
