<svg width="20" height="18" viewBox="0 0 20 18" fill="none" xmlns="http://www.w3.org/2000/svg">
<path d="M2.36719 9.85875L9.39669 16.4622C9.63883 16.6897 9.7599 16.8034 9.90265 16.8314C9.96694 16.8441 10.0331 16.8441 10.0973 16.8314C10.2401 16.8034 10.3612 16.6897 10.6033 16.4622L17.6328 9.85875C19.6106 8.00081 19.8508 4.94338 18.1874 2.7994L17.8746 2.39626C15.8846 -0.168551 11.8903 0.261588 10.492 3.19127C10.2945 3.6051 9.70546 3.6051 9.50795 3.19127C8.10969 0.261588 4.11536 -0.168547 2.12541 2.39627L1.81264 2.7994C0.149204 4.94338 0.389382 8.00081 2.36719 9.85875Z" stroke="#919191" stroke-opacity="0.77" stroke-width="1.4"/>
</svg>
